<?xml version="1.0" encoding="utf-8"?>
<!-- Generator: Adobe Illustrator 25.4.1, SVG Export Plug-In . SVG Version: 6.00 Build 0)  -->
<svg version="1.1" id="Layer_1" xmlns="http://www.w3.org/2000/svg" xmlns:xlink="http://www.w3.org/1999/xlink" x="0px" y="0px"
	 viewBox="0 0 382.9 83.7" style="enable-background:new 0 0 382.9 83.7;" xml:space="preserve">
<style type="text/css">
	.st0{fill:#FFFFFF;}
	.st1{fill:none;}
</style>
<circle class="st0" cx="11.6" cy="11.6" r="11.6"/>
<path class="st0" d="M131.2,17c0.4-0.4,0.9-0.5,1.4-0.5h5.9c1-0.1,1.9,0.6,1.9,1.6c0,0.1,0,0.2,0,0.3v26.7l11.2-13.9
	c0.6-0.7,1.4-1.1,2.3-1.1h7.3c0.4,0,0.9,0.1,1.3,0.3c0.3,0.2,0.4,0.5,0.4,0.9c0,0.5-0.3,0.9-0.6,1.2l-12.3,14.2l13.1,16.5
	c0.3,0.3,0.5,0.8,0.5,1.2c0,0.3-0.2,0.7-0.5,0.8c-0.4,0.2-0.8,0.3-1.2,0.3h-7.2c-0.9,0-1.8-0.4-2.4-1.2L144,54l-3.5,4v5.7
	c0.1,1-0.6,1.9-1.6,2c-0.1,0-0.2,0-0.4,0h-5.9c-1,0.1-1.9-0.6-2-1.6c0-0.1,0-0.2,0-0.4V18.5C130.7,17.9,130.9,17.4,131.2,17z"/>
<path class="st0" d="M197.5,65.1c-0.3-0.4-0.5-0.9-0.5-1.4v-1.6c-1.2,1.4-2.7,2.4-4.4,3c-2.1,0.9-4.3,1.3-6.5,1.3
	c-3.4,0.1-6.7-0.7-9.6-2.4c-2.7-1.6-4.9-4-6.2-6.8c-1.5-2.9-2.2-6.2-2.1-9.4c-0.1-3.3,0.7-6.5,2.2-9.5c1.4-2.8,3.6-5.1,6.2-6.7
	c2.9-1.7,6.2-2.6,9.6-2.5c2.2,0,4.4,0.4,6.4,1.2c1.7,0.7,3.3,1.8,4.5,3.2v-1.8c0-0.5,0.2-1,0.5-1.4c0.4-0.4,0.9-0.5,1.4-0.5h5.7
	c0.5,0,1,0.2,1.4,0.5c0.4,0.4,0.5,0.9,0.5,1.4v31.9c0.1,1-0.6,1.9-1.6,2c-0.1,0-0.2,0-0.4,0h-5.8C198.4,65.7,197.8,65.5,197.5,65.1z
	 M194.6,40.4c-4-3.7-10.2-3.7-14.3,0c-1.8,2-2.8,4.6-2.7,7.3c-0.1,2.7,0.9,5.3,2.7,7.2c1.9,1.9,4.4,2.9,7.1,2.8
	c2.7,0.1,5.3-0.8,7.2-2.7c1.8-2,2.8-4.7,2.6-7.4C197.5,45,196.5,42.4,194.6,40.4z"/>
<path class="st0" d="M216.8,65.1c-0.4-0.4-0.6-0.9-0.5-1.4V18.5c-0.1-1,0.6-1.9,1.6-2c0.1,0,0.2,0,0.4,0h5.9c1-0.1,1.8,0.7,1.9,1.7
	c0,0.1,0,0.2,0,0.2v45.2c0.1,1-0.6,1.9-1.6,2c-0.1,0-0.2,0-0.4,0h-5.9C217.7,65.7,217.2,65.5,216.8,65.1z"/>
<path class="st0" d="M244.1,64.7c-2.9-1.3-5.4-3.3-7.3-5.8c-2.1-2.8-3.2-6.4-3.2-10.9c-0.1-3.4,0.8-6.8,2.6-9.8
	c1.7-2.8,4.1-5.1,7-6.5c3.1-1.6,6.4-2.4,9.9-2.3c3.1,0,6.2,0.7,9,2.1c2.8,1.4,5.1,3.5,6.9,6.1c1.1,1.5,1.8,3.2,2.3,5.1
	c0.4,1.9,0.5,3.8,0.5,5.8c0,0.8-0.2,1.6-0.7,2.3c-0.5,0.6-1.2,0.9-2,0.9h-25.7c0.4,2.1,1.7,3.9,3.6,4.9c1.9,1,4,1.6,6.2,1.6
	c1.6,0,3.1-0.2,4.6-0.8c1.3-0.5,2.4-1.3,3.4-2.2c0.4-0.4,1-0.7,1.6-0.7c0.4,0,0.8,0.1,1.2,0.4l4.2,2.5c0.6,0.3,1,0.8,1,1.4
	c0,0.5-0.2,0.9-0.5,1.2c-3.9,4.4-9.5,6.9-15.4,6.7C250,66.5,246.9,65.9,244.1,64.7z M246.4,39.8c-1.6,1.1-2.7,2.9-2.9,4.9h17.9
	c-0.1-1.2-0.6-2.3-1.3-3.3c-0.8-1.1-1.8-1.9-2.9-2.5c-1.3-0.7-2.8-1-4.2-1C250.6,37.7,248.3,38.4,246.4,39.8z"/>
<path class="st0" d="M288.7,24.6c-1,1-2.4,1.5-3.8,1.5c-1.5,0-2.9-0.5-3.9-1.5c-1-1-1.6-2.3-1.6-3.7c0-1.4,0.6-2.7,1.6-3.7
	c1-1,2.4-1.6,3.9-1.5c1.4,0,2.8,0.5,3.8,1.5c1,0.9,1.6,2.3,1.6,3.7C290.2,22.3,289.7,23.6,288.7,24.6z M280.5,65.1
	c-0.4-0.4-0.6-0.9-0.5-1.4V31.9c-0.1-1,0.6-1.9,1.6-2c0.1,0,0.3,0,0.4,0h5.9c1-0.1,1.9,0.6,2,1.6c0,0.1,0,0.2,0,0.4v31.8
	c0.1,1-0.6,1.9-1.6,2c-0.1,0-0.2,0-0.4,0H282C281.5,65.7,280.9,65.5,280.5,65.1z"/>
<path class="st0" d="M327,65.1c-0.4-0.4-0.6-0.9-0.5-1.4v-1.6c-1.2,1.4-2.7,2.4-4.4,3c-2.1,0.9-4.3,1.3-6.5,1.3
	c-3.3,0.1-6.6-0.7-9.5-2.4c-2.7-1.6-4.9-4-6.2-6.8c-1.5-2.9-2.2-6.2-2.1-9.4c0-3.3,0.7-6.5,2.2-9.5c1.4-2.8,3.6-5.1,6.2-6.7
	c2.9-1.7,6.2-2.6,9.5-2.5c2.2,0,4.4,0.4,6.4,1.2c1.7,0.7,3.2,1.8,4.4,3.2V18.5c-0.1-1,0.7-1.9,1.7-2c0.1,0,0.2,0,0.3,0h5.7
	c1-0.1,1.9,0.6,2,1.6c0,0.1,0,0.2,0,0.3v45.2c0.1,1-0.6,1.9-1.6,2c-0.1,0-0.2,0-0.4,0h-5.7C327.9,65.7,327.4,65.5,327,65.1z
	 M324.2,40.4c-4-3.7-10.2-3.7-14.3,0c-1.8,2-2.8,4.6-2.7,7.3c-0.1,2.7,0.9,5.3,2.8,7.2c1.9,1.9,4.4,2.9,7.1,2.8
	c2.7,0.1,5.3-0.8,7.2-2.7c1.8-2,2.8-4.7,2.6-7.4C327,45,326,42.4,324.2,40.4L324.2,40.4z"/>
<path class="st0" d="M353.7,64c-2.9-1.6-5.3-4-7-6.8c-3.5-5.7-3.5-12.9,0-18.6c1.7-2.9,4.2-5.2,7.1-6.8c6.1-3.3,13.4-3.3,19.4,0
	c2.9,1.6,5.4,3.9,7.2,6.8c3.5,5.7,3.5,12.9,0,18.6c-3.6,5.8-10,9.4-16.9,9.4C360,66.5,356.7,65.7,353.7,64z M358.5,39.1
	c-1.5,0.9-2.7,2.1-3.6,3.6c-1.7,3.2-1.7,7.1,0,10.4c0.8,1.5,2,2.8,3.5,3.6c3.1,1.8,6.9,1.8,10,0c1.5-0.9,2.7-2.2,3.5-3.7
	c0.9-1.6,1.3-3.4,1.3-5.2c0-1.8-0.4-3.5-1.3-5.1c-0.8-1.5-2-2.8-3.5-3.7c-1.5-0.9-3.2-1.3-5-1.3C361.7,37.7,360,38.2,358.5,39.1z"/>
<path class="st0" d="M28.9,39.3h-9.5c-1.5,0-2.8,1.2-2.8,2.8c0,0,0,0,0,0v33.7c0,1.5,1.2,2.8,2.8,2.8h33.7c1.5,0,2.8-1.3,2.8-2.8
	l0,0v-8.3C42,64.3,31.4,53.2,28.9,39.3z"/>
<circle class="st0" cx="63.6" cy="33.1" r="30.9"/>
<rect y="0" class="st1" width="382.9" height="83.7"/>
</svg>
