<?xml version="1.0" encoding="utf-8"?>
<!-- Generator: Adobe Illustrator 25.4.1, SVG Export Plug-In . SVG Version: 6.00 Build 0)  -->
<svg version="1.1" id="Layer_1" xmlns="http://www.w3.org/2000/svg" xmlns:xlink="http://www.w3.org/1999/xlink" x="0px" y="0px"
	 viewBox="0 0 473.4 83.7" style="enable-background:new 0 0 473.4 83.7;" xml:space="preserve">
<style type="text/css">
	.st0{fill:#FFFFFF;}
	.st1{fill:none;}
</style>
<path class="st0" d="M87.9,54.3l-5.8-3.4L46.8,71.7c-1.4,0.8-3.1,0.8-4.4,0L7.1,50.9l-5.8,3.4c-1.3,0.7-1.7,2.4-1,3.6
	c0.2,0.4,0.6,0.7,1,1l41.1,24.2c1.4,0.8,3.1,0.8,4.4,0l41.1-24.2c1.3-0.7,1.7-2.4,1-3.6C88.7,54.9,88.3,54.5,87.9,54.3z"/>
<path class="st0" d="M148.2,29.8c0.4,0.4,0.6,0.9,0.5,1.5v5.5c0,1.2-0.7,1.8-1.9,2c-1.4,0.1-2.8,0.4-4.2,1c-1.4,0.6-2.7,1.5-3.8,2.7
	c-1.6,1.7-2.3,4.2-2.3,7.4v13.8c0,0.5-0.2,1-0.5,1.4c-0.4,0.4-0.9,0.5-1.4,0.5h-5.8c-0.5,0-1-0.2-1.4-0.5c-0.4-0.4-0.5-0.9-0.5-1.4
	V31.9c0-0.5,0.2-1,0.5-1.4c0.4-0.4,0.9-0.5,1.4-0.5h5.8c0.5,0,1,0.2,1.4,0.5c0.4,0.4,0.5,0.9,0.5,1.4v2.8c1.2-1.6,2.8-2.9,4.6-3.8
	c1.8-0.8,3.7-1.4,5.7-1.6C147.3,29.3,147.8,29.4,148.2,29.8z"/>
<path class="st0" d="M162.3,64.7c-2.9-1.3-5.4-3.3-7.3-5.8c-2.1-2.8-3.2-6.4-3.2-10.9c-0.1-3.4,0.8-6.8,2.6-9.8c1.7-2.8,4.1-5,7-6.5
	c3.1-1.6,6.4-2.4,9.9-2.3c3.1,0,6.2,0.7,9,2.1c2.8,1.4,5.1,3.5,6.9,6.1c1.1,1.5,1.8,3.2,2.3,5.1c0.4,1.9,0.5,3.8,0.5,5.8
	c0,0.8-0.2,1.6-0.7,2.3c-0.5,0.6-1.2,0.9-2,0.9h-25.7c0.4,2.1,1.7,3.9,3.6,4.9c1.9,1,4,1.6,6.2,1.6c1.6,0,3.1-0.2,4.6-0.8
	c1.3-0.5,2.4-1.3,3.4-2.2c0.4-0.4,1-0.7,1.6-0.7c0.4,0,0.8,0.1,1.2,0.4l4.2,2.5c0.6,0.3,1,0.8,1,1.4c0,0.5-0.2,0.9-0.5,1.2
	c-3.9,4.4-9.5,6.9-15.4,6.7C168.1,66.6,165.1,65.9,162.3,64.7z M164.6,39.8c-1.6,1.1-2.7,2.9-2.9,4.9h17.9c-0.1-1.2-0.6-2.3-1.3-3.3
	c-0.8-1.1-1.8-1.9-2.9-2.5c-1.3-0.7-2.8-1-4.2-1C168.8,37.7,166.5,38.4,164.6,39.8z"/>
<path class="st0" d="M251,33.2c2.5,2.7,3.7,6.4,3.7,11.3v19.2c0.1,1-0.6,1.9-1.6,2c-0.1,0-0.2,0-0.4,0h-5.9c-1,0.1-1.9-0.6-2-1.6
	c0-0.1,0-0.3,0-0.4V44.5c0-2.5-0.6-4.3-1.9-5.5c-1.4-1.2-3.2-1.8-5-1.8c-1.8,0-3.6,0.7-4.8,2.1c-1.3,1.4-2,3.5-2,6.3v17.9
	c0.1,1-0.6,1.9-1.6,2c-0.1,0-0.2,0-0.4,0h-5.9c-0.5,0-1-0.2-1.4-0.5c-0.4-0.4-0.5-0.9-0.5-1.4V44.5c0-2.5-0.6-4.3-1.8-5.5
	c-1.4-1.2-3.2-1.9-5.1-1.8c-1.9-0.1-3.8,0.8-5,2.2c-1.3,1.5-1.9,3.9-1.9,7.2l-0.1,17c0.2,0.9-0.5,1.8-1.4,2c-0.2,0-0.4,0-0.6,0h-5.8
	c-0.5,0-1-0.2-1.4-0.5c-0.4-0.4-0.5-0.9-0.5-1.4V31.9c0-0.5,0.2-1,0.5-1.4c0.4-0.4,0.9-0.5,1.4-0.5h5.8c1-0.1,1.9,0.6,1.9,1.6
	c0,0.1,0,0.2,0,0.3v1.3c1.3-1.2,2.9-2.1,4.6-2.8c1.5-0.7,3.2-1.1,4.9-1.1c5,0,8.9,1.6,11.5,4.9c1.4-1.6,3.1-2.8,5-3.6
	c2.1-0.9,4.3-1.3,6.5-1.3C244.8,29.3,248.5,30.6,251,33.2z"/>
<path class="st0" d="M272.8,64c-2.9-1.6-5.3-3.9-7-6.8c-3.5-5.7-3.5-12.9,0-18.7c1.7-2.9,4.2-5.2,7.1-6.8c9.3-5.1,20.9-2.1,26.6,6.8
	c3.5,5.7,3.5,12.9,0,18.6C293.8,66.1,282.1,69.1,272.8,64z M277.6,39.1c-1.5,0.9-2.7,2.1-3.6,3.6c-1.7,3.2-1.7,7.1,0,10.4
	c0.8,1.5,2,2.8,3.5,3.6c4.6,2.7,10.6,1.3,13.3-3.3c0.1-0.1,0.1-0.2,0.2-0.3c0.9-1.6,1.3-3.4,1.3-5.2c0-1.8-0.4-3.5-1.3-5.1
	c-0.8-1.5-2.1-2.8-3.5-3.7c-1.5-0.9-3.2-1.3-5-1.3C280.8,37.8,279.1,38.2,277.6,39.1L277.6,39.1z"/>
<path class="st0" d="M323.2,65.7c-0.5,0-1-0.4-1.4-1.1l-16.6-32.2c-0.2-0.3-0.3-0.7-0.3-1c0-0.9,0.6-1.4,1.7-1.4h6.6
	c1-0.1,1.9,0.5,2.3,1.4l7.6,16l7.6-16c0.4-0.9,1.3-1.5,2.3-1.4h6.6c1.1,0,1.7,0.5,1.7,1.4c0,0.3-0.1,0.7-0.3,1l-16.6,32.2
	C324.2,65.4,323.7,65.7,323.2,65.7z"/>
<path class="st0" d="M354.9,64.7c-2.9-1.3-5.5-3.3-7.3-5.8c-2.1-2.8-3.2-6.4-3.2-10.9c-0.1-3.4,0.8-6.8,2.6-9.8c1.7-2.8,4.1-5,7-6.5
	c3.1-1.6,6.4-2.4,9.9-2.3c3.1,0,6.2,0.7,9,2.1c2.8,1.4,5.1,3.5,6.9,6.1c1.1,1.5,1.8,3.3,2.3,5.1c0.4,1.9,0.5,3.8,0.5,5.8
	c0,0.8-0.2,1.6-0.7,2.3c-0.5,0.6-1.2,0.9-2,0.9H354c0.4,2.1,1.7,3.9,3.6,4.9c1.9,1,4,1.6,6.2,1.6c1.6,0,3.1-0.2,4.5-0.8
	c1.3-0.5,2.4-1.3,3.4-2.2c0.4-0.4,1-0.7,1.6-0.7c0.4,0,0.8,0.1,1.2,0.4l4.2,2.5c0.6,0.3,1,0.8,1,1.4c0,0.5-0.2,0.9-0.5,1.2
	c-3.9,4.4-9.5,6.9-15.4,6.7C360.7,66.6,357.6,65.9,354.9,64.7z M357.2,39.8c-1.6,1.1-2.7,2.9-2.9,4.9h17.9c-0.1-1.2-0.6-2.3-1.3-3.3
	c-0.8-1.1-1.8-1.9-2.9-2.5c-1.3-0.7-2.8-1-4.2-1C361.4,37.7,359.1,38.4,357.2,39.8L357.2,39.8z"/>
<path class="st0" d="M399.4,65.2c-0.4,0.3-0.9,0.5-1.4,0.5h-5.7c-1,0.1-1.9-0.6-2-1.6c0-0.1,0-0.2,0-0.4V18.5c-0.1-1,0.6-1.9,1.6-2
	c0.1,0,0.2,0,0.3,0h5.8c0.5,0,1,0.2,1.4,0.5c0.4,0.4,0.5,0.9,0.5,1.4v15.1c1.2-1.4,2.7-2.6,4.4-3.2c2-0.8,4.2-1.3,6.4-1.2
	c3.3-0.1,6.6,0.8,9.5,2.4c2.7,1.6,4.9,3.9,6.3,6.7c1.4,3,2.2,6.2,2.1,9.5c0.1,3.3-0.7,6.5-2.1,9.5c-1.4,2.8-3.5,5.1-6.2,6.7
	c-2.9,1.7-6.2,2.5-9.6,2.5c-2.2,0-4.4-0.4-6.5-1.3c-1.7-0.6-3.2-1.7-4.4-3.1v1.8C400,64.4,399.8,64.8,399.4,65.2z M402.2,55.2
	c1.9,1.9,4.5,2.8,7.2,2.7c2.7,0.1,5.2-0.9,7.1-2.8c1.8-2,2.8-4.6,2.7-7.2c0.1-2.7-0.8-5.3-2.7-7.3c-4-3.7-10.2-3.7-14.3,0
	c-1.8,2-2.8,4.6-2.7,7.3C399.4,50.5,400.3,53.2,402.2,55.2L402.2,55.2z"/>
<path class="st0" d="M472.8,30.5c0.4,0.4,0.5,0.9,0.5,1.4v30.6c0,5.2-1.6,9.3-4.8,12.2c-3.2,2.9-7.6,4.4-13.3,4.4
	c-5.5,0.2-10.9-1.3-15.5-4.3c-0.5-0.3-0.9-0.8-0.9-1.4c0-0.4,0.2-0.9,0.5-1.2l2.5-3.7c0.3-0.5,0.9-0.9,1.5-0.9
	c0.4,0,0.9,0.1,1.2,0.4c1.4,0.9,3,1.7,4.7,2.1c1.7,0.5,3.5,0.7,5.3,0.7c6.1,0,9.2-2.8,9.2-8.3v-0.6c-2.8,2.2-6.4,3.3-10,3.2
	c-3.4,0.1-6.8-0.7-9.9-2.3c-2.8-1.5-5.1-3.7-6.6-6.5c-1.5-2.8-2.3-5.9-2.3-9c-0.1-3.2,0.7-6.3,2.3-9.1c1.5-2.7,3.8-4.9,6.6-6.4
	c3.1-1.7,6.5-2.5,10-2.4c3.6-0.2,7.2,1,10,3.2v-0.6c-0.1-1,0.6-1.9,1.6-2c0.1,0,0.2,0,0.3,0h5.7C472,29.9,472.5,30.1,472.8,30.5z
	 M459.3,55.6c1.5-0.8,2.7-2.1,3.5-3.5c1.7-3,1.7-6.8,0-9.8c-0.8-1.5-2.1-2.7-3.5-3.5c-1.5-0.8-3.3-1.3-5-1.2
	c-2.6-0.1-5.2,0.9-7.1,2.7c-1.8,1.9-2.8,4.4-2.7,7c-0.1,2.6,0.9,5.1,2.7,7c1.9,1.8,4.5,2.8,7.1,2.7C456,56.9,457.8,56.5,459.3,55.6z
	"/>
<path class="st0" d="M87.9,42.8L46.8,67c-1.4,0.8-3,0.8-4.4,0L1.3,42.8C0,42-0.4,40.4,0.4,39.1c0.2-0.4,0.6-0.7,0.9-0.9l41.1-24.2
	c1.4-0.8,3-0.8,4.4,0l41.1,24.2c1.3,0.7,1.7,2.4,0.9,3.7C88.7,42.2,88.3,42.5,87.9,42.8z"/>
<rect y="0" class="st1" width="473.4" height="83.7"/>
</svg>
